<svg width="186" height="214" viewBox="0 0 186 214" fill="none" xmlns="http://www.w3.org/2000/svg">
<path d="M33.6808 14.3778V0H1.84693C0.833687 0 0 0.820859 0 1.84693V62.2569C0 63.2702 0.833687 64.1039 1.84693 64.1039H31.7184C32.7317 64.1039 33.5654 63.2702 33.5654 62.2569V44.6983C33.5654 44.4802 33.6039 44.2622 33.6808 44.0698V28.5761H33.5654V14.3778H33.6808Z" fill="#D1FD08"/>
<path d="M35.5913 35.1686H55.7151C56.7412 35.1686 57.5621 34.3478 57.5621 33.3217V27.5885C57.5621 26.5625 56.7412 25.7416 55.7151 25.7416H35.5913C34.5652 25.7416 33.7444 24.9207 33.7444 23.8947V11.5561C33.7444 10.5301 34.5652 9.70921 35.5913 9.70921H56.6258C57.6518 9.70921 58.4727 8.88835 58.4727 7.86228V1.84693C58.4727 0.820859 57.6518 0 56.6258 0H24.9714C23.9454 0 23.1245 0.820859 23.1245 1.84693V62.2569C23.1245 63.283 23.9454 64.1039 24.9714 64.1039H31.8974C32.9235 64.1039 33.7444 63.283 33.7444 62.2569V37.0156C33.7444 35.9895 34.5652 35.1686 35.5913 35.1686Z" fill="#D1FD08"/>
<path d="M75.1981 0H67.9002C66.8801 0 66.0532 0.8269 66.0532 1.84693V62.2569C66.0532 63.277 66.8801 64.1039 67.9002 64.1039H75.1981C76.2181 64.1039 77.045 63.277 77.045 62.2569V1.84693C77.045 0.8269 76.2181 0 75.1981 0Z" fill="#1A1A1A"/>
<path d="M103.621 64.1039H110.739C111.765 64.1039 112.586 63.283 112.586 62.2569V11.8255C112.586 10.7994 113.407 9.97856 114.433 9.97856H127.682C128.708 9.97856 129.529 9.1577 129.529 8.13163V1.84693C129.529 0.820859 128.708 0 127.682 0H86.678C85.6519 0 84.8311 0.820859 84.8311 1.84693V8.13163C84.8311 9.1577 85.6519 9.97856 86.678 9.97856H99.9272C100.953 9.97856 101.774 10.7994 101.774 11.8255V62.2569C101.774 63.283 102.595 64.1039 103.621 64.1039Z" fill="#1A1A1A"/>
<path d="M65.348 96.0924C65.348 91.6418 64.4117 87.8197 62.5519 84.6388C60.6922 81.4708 57.8448 79.0083 54.0356 77.2639C50.2134 75.5196 45.3781 74.6475 39.5166 74.6475H1.84693C0.820861 74.6475 0 75.4683 0 76.4944V136.904C0 137.93 0.820861 138.751 1.84693 138.751H31.7184C32.7445 138.751 33.5654 137.93 33.5654 136.904V119.346C33.5654 118.32 34.3862 117.499 35.4123 117.499H39.5166C45.3781 117.499 50.2134 116.639 54.0356 114.934C57.8448 113.228 60.6922 110.752 62.5519 107.52C64.4117 104.288 65.348 100.466 65.348 96.0667V96.0924ZM46.0194 101.402C44.4931 102.621 42.3255 103.236 39.5166 103.236H33.5654V89.0381H39.5166C42.3255 89.0381 44.4931 89.6538 46.0194 90.8722C47.5456 92.0907 48.3024 93.835 48.3024 96.0924C48.3024 98.3497 47.5328 100.184 46.0194 101.402Z" fill="#D1FD08"/>
<path d="M78.764 116.922L78.6229 118.692C78.6101 118.897 78.5588 119.102 78.469 119.307L70.1578 138.072C69.8628 138.739 69.1959 139.175 68.4648 139.175H60.3332C58.9736 139.175 58.0758 137.764 58.653 136.532L87.2419 74.7629C87.9089 73.3264 89.9482 73.3264 90.6151 74.7629L119.281 136.532C119.858 137.764 118.948 139.175 117.601 139.175H109.379C108.648 139.175 107.981 138.739 107.686 138.072L99.5676 119.859C99.4778 119.654 99.4265 119.448 99.4137 119.23L99.2726 117.204C99.2598 116.999 99.2085 116.793 99.1315 116.601L90.6536 96.9261C90.0123 95.4255 87.8832 95.4255 87.2419 96.9261L78.9307 116.332C78.8538 116.524 78.8025 116.716 78.7896 116.922H78.764ZM75.6601 113.395H102.62C103.492 113.395 104.249 113.997 104.429 114.857L105.634 120.346C105.891 121.501 105.006 122.604 103.826 122.604H74.4032C73.2104 122.604 72.3254 121.488 72.5947 120.333L73.8645 114.844C74.0569 113.997 74.8136 113.407 75.673 113.407L75.6601 113.395Z" fill="#1A1A1A"/>
<path d="M185.604 76.5709V137.943C185.604 139.597 183.616 140.418 182.436 139.264L141.714 99.0162C140.547 97.8619 138.546 98.6827 138.546 100.337V137.314C138.546 138.34 137.712 139.174 136.686 139.174H129.722C128.695 139.174 127.862 138.34 127.862 137.314V75.9424C127.862 74.2879 129.85 73.467 131.03 74.6213L171.752 114.869C172.919 116.023 174.92 115.202 174.92 113.548V76.5709C174.92 75.5448 175.754 74.7111 176.78 74.7111H183.744C184.77 74.7111 185.604 75.5448 185.604 76.5709Z" fill="#1A1A1A"/>
<path d="M11.2742 151.397V212.14C11.2742 213.166 10.4405 214 9.41438 214H1.98817C0.962098 214 0.128418 213.166 0.128418 212.14V151.397C0.128418 150.371 0.962098 149.537 1.98817 149.537H9.41438C10.4405 149.537 11.2742 150.371 11.2742 151.397ZM6.8492 212.14V205.638C6.8492 204.612 7.6829 203.778 8.70897 203.778H26.2291C29.4228 203.778 32.3728 203.303 35.0662 202.354C37.7725 201.405 40.1196 200.02 42.1076 198.211C44.0956 196.403 45.6604 194.12 46.8019 191.35C47.9434 188.592 48.5078 185.398 48.5078 181.769C48.5078 178.139 47.9434 174.958 46.8019 172.188C45.6604 169.43 44.0956 167.121 42.1076 165.287C40.1068 163.44 37.7596 162.068 35.0662 161.145C32.3599 160.221 29.4228 159.759 26.2291 159.759H8.70897C7.6829 159.759 6.8492 158.926 6.8492 157.9V151.397C6.8492 150.371 7.6829 149.537 8.70897 149.537H26.5113C33.0782 149.537 38.8498 150.871 43.8263 153.539C48.8027 156.207 52.6762 159.952 55.4722 164.774C58.2683 169.597 59.6663 175.253 59.6663 181.769C59.6663 188.284 58.2683 193.94 55.4722 198.763C52.6762 203.585 48.7899 207.331 43.8263 209.998C38.8498 212.666 33.0782 214 26.5113 214H8.70897C7.6829 214 6.8492 213.166 6.8492 212.14Z" fill="#1A1A1A"/>
<path d="M78.9183 191.736L78.7772 193.506C78.7643 193.711 78.713 193.917 78.6233 194.122L70.3121 212.886C70.0171 213.553 69.3501 213.989 68.6191 213.989H60.4874C59.1279 213.989 58.2301 212.578 58.8073 211.347L87.3962 149.577C88.0631 148.141 90.1024 148.141 90.7694 149.577L119.435 211.347C120.012 212.578 119.102 213.989 117.755 213.989H109.534C108.803 213.989 108.136 213.553 107.841 212.886L99.7219 194.673C99.6321 194.468 99.5808 194.263 99.568 194.045L99.4269 192.018C99.4141 191.813 99.3628 191.608 99.2858 191.415L90.8079 171.741C90.1666 170.24 88.0375 170.24 87.3962 171.741L79.085 191.146C79.0081 191.339 78.9567 191.531 78.9439 191.736H78.9183ZM75.8144 188.209H102.774C103.647 188.209 104.403 188.812 104.583 189.671L105.789 195.161C106.045 196.315 105.16 197.418 103.98 197.418H74.5575C73.3647 197.418 72.4797 196.302 72.749 195.148L74.0188 189.658C74.2112 188.812 74.9679 188.222 75.8272 188.222L75.8144 188.209Z" fill="#1A1A1A"/>
</svg>
